<?xml version="1.0" encoding="utf-8"?>
<!-- Generator: Adobe Illustrator 29.7.1, SVG Export Plug-In . SVG Version: 9.03 Build 0)  -->
<svg version="1.0" id="Ebene_1" xmlns="http://www.w3.org/2000/svg" xmlns:xlink="http://www.w3.org/1999/xlink" x="0px" y="0px"
	 viewBox="0 0 883.64 883.64" style="enable-background:new 0 0 883.64 883.64;" xml:space="preserve">
<style type="text/css">
	.st0{fill:#4E6850;}
	.st1{fill:#FDFDFD;}
	.st2{fill:#4F6951;}
	.st3{fill:none;stroke:#FFFFFF;stroke-width:9;stroke-miterlimit:10;}
</style>
<g>
	<g>
		<path class="st0" d="M891.32-6.04v896.26H-7.13l0-896.27L891.32-6.04z M361.88,217.48c-1.16-15.85,2.96-60.26-24.87-52.26
			c-22.8,6.55-46.75,49.13-52.54,70.83c-0.66,2.47-2.41,13.63-2.96,14.47c-0.25,0.37-6.07,4.08-7.3,5.14
			c-22.78,19.72-42.14,66.7-49.26,95.69c-11.54,46.99-14.66,94.89-36.68,139.25c-10.03,20.2-26.91,42.46-40.82,60.42
			c-13.05,16.86-27.19,34.04-43.07,48.22c-4.71,7.05,2.26,14.94,9.38,9.94c3.62-2.54,11.49-10.38,14.94-13.83
			c26.7-26.72,55.6-64.07,72.49-97.91c33.22-66.55,25.68-144.64,64.75-208c1.53-2.48,13.63-19.93,14.89-19.95
			c1.2-0.02,0.72,3.81,0.83,4.69c0.56,4.55,1.79,17.06,3.96,20.38c3.81,5.83,12.44,2.67,12.1-4.31c-0.21-4.32-1.82-10.26-2.23-14.97
			c-2.32-27.05,6.14-53.01,22.46-74.35c5.47-7.15,14.2-17.52,22.41-21.29c3.42-1.57,3.46,0,4.22,3.39
			c1.45,6.49,1.23,22.73,0.72,29.76c-0.33,4.57-1.61,2.32-5.14,3.72c-1.06,0.42-5.61,3.88-6.78,4.83
			c-11.36,9.2-24.02,26.43-28.9,40.25c-1.44,4.08-4.72,11.89,1.83,12.82c10.1,1.44,9.1-5.39,12.49-12.33
			c5-10.24,14.32-21.14,23.14-28.31c0.36-0.29,2.09-1.54,2.22-1.37c-0.5,8.1,0.12,17.09-1.27,25c-0.29,1.62-2.12,3.05-0.09,5.41
			c0.8,0.93,8.02,2.77,9.41,2.81c2.23,0.07,3.19-1.37,4.99-1.66c17.53-2.79,53.11,8.6,63.11,24.24c4.79,7.49,1.63,8.05,2.56,15.14
			c1.14,8.67,8.03,12.11,14.5,16.47c15.51,10.44,36.06,19.09,45.39,35.94c4.51,8.15,5.15,15.92,2.76,24.9
			c-5.34-4.41-10.96-8.76-16.7-12.62c-4.45-3-12.09-9.66-17.01-3.93c-2.24,2.61-1.78,6.36,0.49,8.84
			c7.48,5.32,15.19,10.58,22.14,16.59c0.92,0.8,3.95,3.05,3.63,4.11c-7.23,5.34-16.61,5.08-25.22,4.75
			c-5.71-0.22-12.68-1.76-18.26-1.61c-7.16,0.2-3.44,11.47,1.72,13.17c3.44,1.13,15.19,2.06,19.31,2.27
			c5.1,0.26,10.77,0.12,15.79-0.57c0.52,0.47-3.32,5.2-3.86,5.82c-23.1,26.9-45.78,7.98-73.87,9.67
			c-9.67,0.58-19.24,3.38-28.84,4.35c-29.51,2.99-50.86-9.37-65.72-34.27c-2.31-3.87-6.26-14.23-9.15-16.3
			c-4.42-3.16-10.55-0.45-10.54,5c0,2.8,6.47,15.78,8.21,18.9c11.54,20.74,28.86,35.8,52.68,40.35
			c-0.73,10.73-1.69,22.18-4.41,32.61c-0.23,0.88-0.99,0.84-1.1,1.24c-13,48.03-29.77,95.17-40.18,143.94
			c-2.54,11.9-6.31,28.39-7.38,40.19c-0.38,4.16,0.08,8.31,4.88,9.39c4.81,1.08,6.81-2.62,8.05-6.42
			c4.32-13.23,6.63-31.27,9.95-45.37c7.14-30.27,15.64-60.19,24.54-89.96c4.48-14.97,10.5-30.43,14.43-45.9
			c3.16-12.43,5.25-25.65,6.13-38.41c4.05-0.11,8.43-0.18,12.45-0.55c10.59-1,24.82-4.57,34.85-4.42
			c8.36,0.12,20.02,4.39,29.33,4.97c24.72,1.55,41.71-9.25,54.17-29.91c2.69-4.47,5.46-9.2,7.97-13.61
			c11.52-20.27,14.07-36.43,1.43-57.12c-13.48-22.06-36.73-31.66-57.65-44.97c2.55-15.93-10.13-28.56-22.29-36.63
			c-6.08-4.04-12.85-7.13-19.84-9.21c1.83-8.35,4.61-16.48,6.35-24.86c2.77-13.32,7.22-36.1-14.34-33.15
			C378.4,198.32,367.9,210.95,361.88,217.48z M605.3,511.8c0.64-14.96,0.97-30.04,0.08-45c17.1-14.27,29.4-32.83,31.99-55.42
			c2.59-22.57-10.31-69.69-22.88-88.86c-4.45-6.79-11.93-17.96-20.83-10.73c-3.68,2.99-12.29,14.59-15.38,18.92
			c-21.84,30.73-30.05,68.29-14.33,103.77c6.13,13.84,13.65,24.5,26.96,32.34c1.43,19.63-0.15,39.19-0.57,58.81l-12.5-17.64
			c-20-25.26-46.32-54.93-81.84-52.64c-4.49,0.29-11.81,1.49-11.89,7.48c-0.42,31.01,9.85,55.05,34.36,74.1
			c20.74,16.12,44.12,25.6,70.77,25.77c-0.19,16.87,0.23,33.77,0.02,50.65c-0.02,1.31-0.58,2.52-0.6,3.83
			c-0.09,4.88-0.62,10.74,1.13,15.23c-8.87,0.9-17.9,0.54-26.83,1.12c-36.06,2.34-73.7,9-107.04,22.97
			c-5.67,2.37-15.88,6.48-20.67,9.76c-7.17,4.9-3.69,14.53,4.75,13.61c48.8-23.86,103.89-30.96,157.83-31.94
			c41.58-0.75,84.65,2.62,124.6,14.77c5.71,1.74,15.43,6.38,20.45,7.21c7.07,1.16,12.01-5.92,7.59-11.46
			c-2.3-2.89-15.62-7.13-19.75-8.47c-22.75-7.36-47.16-11.75-70.97-14.23c-19.2-2-38.56-2.32-57.8-3.33
			c1.86-3.97,0.88-8.2,1.08-12.47c0.06-1.31,0.56-2.52,0.6-3.83c0.59-17.92-0.55-35.96,0.05-53.89
			c48.97-5.77,92.51-39.31,110.44-85.13c2.06-5.26,7.08-17.67,3.19-22.29c-4.52-5.36-18.77-0.89-24.75,0.73
			c-31.12,8.41-55.69,20.78-77.62,44.65L605.3,511.8z M365.19,328.68c-0.33,20.87,28.7,15.68,25.96-4.1
			c-2.17-15.67-33.61-12.02-40.89-2.26c-2.43,3.25-2.56,7.63,1.13,9.93C356.73,335.59,360.27,329.82,365.19,328.68z"/>
		<polygon class="st1" points="-7.13,890.23 -7.68,890.23 -7.68,-6.59 891.32,-6.59 891.32,-6.04 -7.13,-6.04 		"/>
		<path class="st1" d="M361.88,217.48c6.01-6.52,16.52-19.16,25.77-20.42c21.56-2.95,17.11,19.83,14.34,33.15
			c-1.74,8.38-4.52,16.51-6.35,24.86c6.99,2.08,13.76,5.18,19.84,9.21c12.16,8.08,24.85,20.7,22.29,36.63
			c20.92,13.31,44.17,22.91,57.65,44.97c12.64,20.69,10.09,36.85-1.43,57.12c-2.51,4.41-5.28,9.14-7.97,13.61
			c-12.45,20.66-29.45,31.47-54.17,29.91c-9.31-0.58-20.97-4.85-29.33-4.97c-10.03-0.15-24.27,3.42-34.85,4.42
			c-4.02,0.38-8.4,0.44-12.45,0.55c-0.88,12.76-2.97,25.98-6.13,38.41c-3.93,15.46-9.95,30.92-14.43,45.9
			c-8.9,29.78-17.4,59.69-24.54,89.96c-3.33,14.1-5.64,32.14-9.95,45.37c-1.24,3.79-3.24,7.5-8.05,6.42
			c-4.8-1.08-5.26-5.23-4.88-9.39c1.07-11.8,4.84-28.3,7.38-40.19c10.41-48.77,27.18-95.92,40.18-143.94
			c0.11-0.4,0.87-0.36,1.1-1.24c2.72-10.43,3.68-21.88,4.41-32.61c-23.82-4.56-41.14-19.62-52.68-40.35
			c-1.74-3.13-8.21-16.1-8.21-18.9c0-5.45,6.12-8.16,10.54-5c2.89,2.07,6.84,12.43,9.15,16.3c14.86,24.9,36.21,37.26,65.72,34.27
			c9.61-0.97,19.17-3.77,28.84-4.35c28.09-1.69,50.77,17.23,73.87-9.67c0.54-0.62,4.37-5.35,3.86-5.82
			c-5.02,0.7-10.69,0.83-15.79,0.57c-4.12-0.21-15.87-1.14-19.31-2.27c-5.15-1.7-8.88-12.97-1.72-13.17
			c5.58-0.16,12.55,1.39,18.26,1.61c8.6,0.33,17.99,0.59,25.22-4.75c0.32-1.06-2.71-3.31-3.63-4.11c-6.95-6-14.66-11.27-22.14-16.59
			c-2.27-2.48-2.73-6.23-0.49-8.84c4.92-5.73,12.56,0.94,17.01,3.93c5.74,3.86,11.37,8.21,16.7,12.62
			c2.39-8.98,1.75-16.75-2.76-24.9c-9.33-16.85-29.88-25.5-45.39-35.94c-6.48-4.36-13.37-7.81-14.5-16.47
			c-0.93-7.09,2.23-7.65-2.56-15.14c-9.99-15.63-45.58-27.02-63.11-24.24c-1.81,0.29-2.76,1.73-4.99,1.66
			c-1.39-0.04-8.61-1.88-9.41-2.81c-2.03-2.36-0.19-3.79,0.09-5.41c1.39-7.91,0.77-16.91,1.27-25c-0.13-0.17-1.86,1.08-2.22,1.37
			c-8.83,7.17-18.15,18.07-23.14,28.31c-3.39,6.95-2.39,13.77-12.49,12.33c-6.55-0.93-3.27-8.74-1.83-12.82
			c4.88-13.83,17.54-31.05,28.9-40.25c1.17-0.95,5.72-4.41,6.78-4.83c3.52-1.4,4.81,0.85,5.14-3.72c0.51-7.02,0.73-23.26-0.72-29.76
			c-0.76-3.39-0.8-4.97-4.22-3.39c-8.21,3.77-16.94,14.14-22.41,21.29c-16.32,21.34-24.78,47.3-22.46,74.35
			c0.4,4.71,2.02,10.65,2.23,14.97c0.34,6.98-8.29,10.14-12.1,4.31c-2.17-3.33-3.4-15.84-3.96-20.38c-0.11-0.87,0.37-4.71-0.83-4.69
			c-1.26,0.02-13.36,17.47-14.89,19.95c-39.07,63.36-31.53,141.45-64.75,208c-16.89,33.84-45.79,71.19-72.49,97.91
			c-3.45,3.45-11.32,11.29-14.94,13.83c-7.12,5-14.09-2.88-9.38-9.94c15.88-14.17,30.02-31.36,43.07-48.22
			c13.9-17.96,30.79-40.22,40.82-60.42c22.03-44.36,25.15-92.26,36.68-139.25c7.12-28.99,26.48-75.97,49.26-95.69
			c1.23-1.07,7.06-4.77,7.3-5.14c0.55-0.83,2.3-12,2.96-14.47c5.78-21.7,29.74-64.28,52.54-70.83
			C364.84,157.22,360.73,201.62,361.88,217.48z M381.17,251.7c3.82-13.16,8.06-26.54,8.92-40.31c-9.43,4.69-17.31,13.77-23.46,22.18
			c-0.82,1.12-4.72,6.36-4.85,6.76c-1,3.08-0.08,7.07-1,10.34C367.64,250.33,374.37,250.98,381.17,251.7z"/>
		<path class="st1" d="M605.3,511.8l9.67-11.62c21.93-23.86,46.49-36.24,77.62-44.65c5.98-1.62,20.24-6.09,24.75-0.73
			c3.89,4.62-1.13,17.03-3.19,22.29c-17.93,45.83-61.47,79.36-110.44,85.13c-0.61,17.92,0.53,35.96-0.05,53.89
			c-0.04,1.31-0.54,2.52-0.6,3.83c-0.21,4.27,0.78,8.5-1.08,12.47c19.25,1.01,38.6,1.32,57.8,3.33c23.8,2.48,48.21,6.88,70.97,14.23
			c4.13,1.33,17.45,5.58,19.75,8.47c4.42,5.55-0.52,12.63-7.59,11.46c-5.02-0.83-14.74-5.47-20.45-7.21
			c-39.95-12.15-83.02-15.52-124.6-14.77c-53.94,0.97-109.03,8.07-157.83,31.94c-8.45,0.92-11.93-8.71-4.75-13.61
			c4.8-3.28,15.01-7.38,20.67-9.76c33.34-13.97,70.98-20.63,107.04-22.97c8.93-0.58,17.95-0.22,26.83-1.12
			c-1.74-4.5-1.22-10.35-1.13-15.23c0.02-1.31,0.58-2.52,0.6-3.83c0.21-16.88-0.21-33.78-0.02-50.65
			c-26.65-0.17-50.03-9.65-70.77-25.77c-24.51-19.05-34.78-43.09-34.36-74.1c0.08-5.98,7.39-7.19,11.89-7.48
			c35.52-2.29,61.84,27.38,81.84,52.64l12.5,17.64c0.42-19.62,2-39.17,0.57-58.81c-13.32-7.84-20.83-18.49-26.96-32.34
			c-15.72-35.49-7.51-73.04,14.33-103.77c3.08-4.34,11.7-15.93,15.38-18.92c8.9-7.23,16.38,3.94,20.83,10.73
			c12.57,19.18,25.47,66.29,22.88,88.86c-2.59,22.59-14.9,41.15-31.99,55.42C606.27,481.76,605.94,496.84,605.3,511.8z
			 M604.75,447.07c8.53-8.83,15.39-20.86,17.53-33.08c2.92-16.63-2.48-37.58-7.43-53.65c-2.3-7.45-5.42-16.84-8.9-23.74
			c-0.74-1.47-5.09-9.21-6.39-8.99c-1.89,0.32-14.32,18.82-15.94,21.72c-11.58,20.74-14.86,38.26-10.8,61.88
			c2.26,13.11,6.16,23.89,16.7,32.54l-0.03-40.97c1.61-7.98,12.11-8.38,13.03-0.24c0.84,7.42,0.15,15.8,0.53,23.26
			C603.42,432.86,604.52,439.99,604.75,447.07z M585.93,547.76c0.58-0.53-6.65-12.4-7.51-13.78c-14.66-23.41-45.13-56.22-72.8-62.74
			c-0.95-0.22-5.58-1.3-5.99-0.92C504.67,513.87,542.22,547.25,585.93,547.76z M700.45,470.87c-40.71,9.33-80.82,35.58-95.15,76.34
			C647.52,541.45,686.23,511.07,700.45,470.87z"/>
		<path class="st1" d="M365.19,328.68c-4.92,1.14-8.46,6.91-13.8,3.57c-3.69-2.3-3.55-6.68-1.13-9.93
			c7.28-9.76,38.72-13.42,40.89,2.26C393.89,344.36,364.86,349.55,365.19,328.68z"/>
		<path class="st2" d="M381.17,251.7c-6.8-0.72-13.53-1.37-20.4-1.03c0.92-3.27,0.01-7.25,1-10.34c0.13-0.41,4.03-5.64,4.85-6.76
			c6.14-8.41,14.03-17.49,23.46-22.18C389.22,225.16,384.99,238.54,381.17,251.7z"/>
		<path class="st2" d="M604.75,447.07c-0.23-7.08-1.33-14.22-1.69-21.28c-0.38-7.46,0.31-15.84-0.53-23.26
			c-0.92-8.13-11.42-7.74-13.03,0.24l0.03,40.97c-10.54-8.65-14.45-19.43-16.7-32.54c-4.06-23.62-0.78-41.14,10.8-61.88
			c1.62-2.9,14.04-21.4,15.94-21.72c1.29-0.22,5.65,7.53,6.39,8.99c3.48,6.9,6.6,16.3,8.9,23.74c4.95,16.07,10.35,37.02,7.43,53.65
			C620.14,426.21,613.28,438.24,604.75,447.07z"/>
		<path class="st2" d="M585.93,547.76c-43.71-0.51-81.27-33.89-86.3-77.45c0.4-0.37,5.04,0.7,5.99,0.92
			c27.67,6.52,58.13,39.34,72.8,62.74C579.28,535.36,586.52,547.24,585.93,547.76z"/>
		<path class="st2" d="M700.45,470.87c-14.22,40.2-52.93,70.58-95.15,76.34C619.63,506.45,659.74,480.2,700.45,470.87z"/>
	</g>
</g>
<circle class="st3" cx="441.82" cy="441.82" r="395.65"/>
</svg>
